<svg width="508" height="128" viewBox="0 0 127 32" fill="none" xmlns="http://www.w3.org/2000/svg">
    <circle cx="16" cy="16" r="16" fill="#729EE0"/>
    <path d="M14.6094 22.7812H23.0352V24H13.1562V6.9375H14.6094V22.7812ZM39.5703 24H38.1289V6.9375H39.5703V24ZM68.9141 24H67.4727L57.6641 9.39844V24H56.2109V6.9375H57.6641L67.4844 21.5508V6.9375H68.9141V24ZM97.5664 21.9727C97.0664 22.6836 96.2812 23.2383 95.2109 23.6367C94.1484 24.0352 92.957 24.2344 91.6367 24.2344C90.3008 24.2344 89.1133 23.9141 88.0742 23.2734C87.0352 22.6328 86.2305 21.7266 85.6602 20.5547C85.0898 19.3828 84.8008 18.0391 84.793 16.5234V14.3672C84.793 12 85.3906 10.1328 86.5859 8.76562C87.7812 7.39063 89.3867 6.70312 91.4023 6.70312C93.1602 6.70312 94.5742 7.15234 95.6445 8.05078C96.7148 8.94141 97.3516 10.1719 97.5547 11.7422H96.1133C95.9023 10.4922 95.3906 9.54688 94.5781 8.90625C93.7734 8.25781 92.7188 7.93359 91.4141 7.93359C89.8203 7.93359 88.5586 8.5 87.6289 9.63281C86.6992 10.7656 86.2344 12.3633 86.2344 14.4258V16.4414C86.2344 17.7383 86.4531 18.8867 86.8906 19.8867C87.3359 20.8789 87.9688 21.6484 88.7891 22.1953C89.6172 22.7422 90.5664 23.0156 91.6367 23.0156C92.8789 23.0156 93.9453 22.8203 94.8359 22.4297C95.4141 22.1719 95.8438 21.8711 96.125 21.5273V17.1211H91.543V15.9023H97.5664V21.9727ZM126.266 16.3945C126.266 17.9648 125.992 19.3438 125.445 20.5312C124.906 21.7188 124.133 22.6328 123.125 23.2734C122.117 23.9141 120.953 24.2344 119.633 24.2344C117.641 24.2344 116.031 23.5234 114.805 22.1016C113.578 20.6719 112.965 18.7461 112.965 16.3242V14.5664C112.965 13.0117 113.238 11.6367 113.785 10.4414C114.34 9.23828 115.121 8.31641 116.129 7.67578C117.137 7.02734 118.297 6.70312 119.609 6.70312C120.922 6.70312 122.078 7.01953 123.078 7.65234C124.086 8.28516 124.863 9.17969 125.41 10.3359C125.957 11.4922 126.242 12.832 126.266 14.3555V16.3945ZM124.824 14.543C124.824 12.4883 124.359 10.8789 123.43 9.71484C122.5 8.55078 121.227 7.96875 119.609 7.96875C118.023 7.96875 116.758 8.55469 115.812 9.72656C114.875 10.8906 114.406 12.5195 114.406 14.6133V16.3945C114.406 18.418 114.875 20.0234 115.812 21.2109C116.75 22.3906 118.023 22.9805 119.633 22.9805C121.266 22.9805 122.539 22.3984 123.453 21.2344C124.367 20.0625 124.824 18.4336 124.824 16.3477V14.543Z"
          fill="black"/>
</svg>